<svg width="32" height="32" viewBox="0 0 32 32" fill="none" xmlns="http://www.w3.org/2000/svg">
<g clip-path="url(#clip0_8885_109349)">
<rect width="32" height="32" fill="url(#paint0_linear_8885_109349)"/>
<path fill-rule="evenodd" clip-rule="evenodd" d="M16 6C10.4773 6 6 10.4773 6 16C6 21.5227 10.4773 26 16 26C21.5227 26 26 21.5227 26 16C26 10.4773 21.5227 6 16 6ZM20.3345 14.3091C20.4144 14.2179 20.4751 14.1116 20.5133 13.9965C20.5514 13.8815 20.5661 13.7599 20.5566 13.6391C20.5471 13.5182 20.5135 13.4005 20.4578 13.2928C20.4021 13.1852 20.3254 13.0897 20.2323 13.0121C20.1392 12.9345 20.0315 12.8763 19.9155 12.841C19.7996 12.8056 19.6777 12.7938 19.5572 12.8062C19.4366 12.8186 19.3197 12.855 19.2134 12.9133C19.1071 12.9716 19.0135 13.0505 18.9382 13.1455L15.0291 17.8355L13.0064 15.8118C12.8349 15.6462 12.6053 15.5546 12.3669 15.5567C12.1285 15.5587 11.9005 15.6543 11.732 15.8229C11.5634 15.9914 11.4678 16.2195 11.4658 16.4578C11.4637 16.6962 11.5553 16.9258 11.7209 17.0973L14.4482 19.8245C14.5375 19.9138 14.6445 19.9835 14.7622 20.0291C14.8799 20.0748 15.0059 20.0954 15.1321 20.0897C15.2582 20.084 15.3818 20.052 15.4949 19.9959C15.608 19.9397 15.7082 19.8606 15.7891 19.7636L20.3345 14.3091Z" fill="#FFCC00"/>
</g>
<defs>
<linearGradient id="paint0_linear_8885_109349" x1="16" y1="0" x2="16" y2="32" gradientUnits="userSpaceOnUse">
<stop stop-color="#333333"/>
<stop offset="1"/>
</linearGradient>
<clipPath id="clip0_8885_109349">
<path d="M0 12.72C0 8.31504 0 6.11257 0.843643 4.42417C1.61799 2.87446 2.87446 1.61799 4.42417 0.843643C6.11257 0 8.31504 0 12.72 0H19.28C23.685 0 25.8874 0 27.5758 0.843643C29.1255 1.61799 30.382 2.87446 31.1564 4.42417C32 6.11257 32 8.31504 32 12.72V19.28C32 23.685 32 25.8874 31.1564 27.5758C30.382 29.1255 29.1255 30.382 27.5758 31.1564C25.8874 32 23.685 32 19.28 32H12.72C8.31504 32 6.11257 32 4.42417 31.1564C2.87446 30.382 1.61799 29.1255 0.843643 27.5758C0 25.8874 0 23.685 0 19.28V12.72Z" fill="white"/>
</clipPath>
</defs>
</svg>
